<?xml version="1.0" encoding="utf-8" standalone="no"?>
<!DOCTYPE svg PUBLIC "-//W3C//DTD SVG 1.1//EN"
  "http://www.w3.org/Graphics/SVG/1.1/DTD/svg11.dtd">
<svg xmlns:xlink="http://www.w3.org/1999/xlink" width="50.4pt" height="50.4pt" viewBox="0 0 50.4 50.4" xmlns="http://www.w3.org/2000/svg" version="1.1">
 <metadata>
  <rdf:RDF xmlns:dc="http://purl.org/dc/elements/1.1/" xmlns:cc="http://creativecommons.org/ns#" xmlns:rdf="http://www.w3.org/1999/02/22-rdf-syntax-ns#">
   <cc:Work>
    <dc:type rdf:resource="http://purl.org/dc/dcmitype/StillImage"/>
    <dc:date>2025-07-22T10:34:01.351347</dc:date>
    <dc:format>image/svg+xml</dc:format>
    <dc:creator>
     <cc:Agent>
      <dc:title>Matplotlib v3.10.3, https://matplotlib.org/</dc:title>
     </cc:Agent>
    </dc:creator>
   </cc:Work>
  </rdf:RDF>
 </metadata>
 <defs>
  <style type="text/css">*{stroke-linejoin: round; stroke-linecap: butt}</style>
 </defs>
 <g id="figure_1">
  <g id="patch_1">
   <path d="M 0 50.4 
L 50.4 50.4 
L 50.4 0 
L 0 0 
L 0 50.4 
z
" style="fill: none"/>
  </g>
  <g id="axes_1">
   <g id="patch_2">
    <path d="M 25.83 7.697455 
C 22.713658 7.697455 19.651558 8.517942 16.952726 10.076113 
C 14.253895 11.634284 12.012282 13.875898 10.454111 16.574729 
C 8.895941 19.273561 8.075454 22.335661 8.075455 25.452004 
C 8.075455 28.568346 8.895943 31.630446 10.454115 34.329277 
L 25.83 25.452 
z
" style="fill: #4c4c4c; stroke: #301934; stroke-width: 2.3; stroke-linejoin: miter"/>
   </g>
   <g id="patch_3">
    <path d="M 10.454114 34.329276 
C 12.012285 37.028107 14.253898 39.269718 16.952729 40.827888 
C 19.65156 42.386058 22.713659 43.206545 25.83 43.206545 
C 28.946342 43.206545 32.008447 42.386056 34.707278 40.827884 
C 37.406109 39.269712 39.64772 37.0281 41.20589 34.329268 
L 25.83 25.452 
z
" style="fill: #56b4e9; stroke: #301934; stroke-width: 2.3; stroke-linejoin: miter"/>
   </g>
   <g id="patch_4">
    <path d="M 41.20589 34.329268 
C 42.76406 31.630437 43.584545 28.568338 43.584545 25.451997 
C 43.584544 22.335655 42.764055 19.273549 41.205883 16.574719 
C 39.647711 13.875889 37.406098 11.634278 34.707266 10.076109 
C 32.008434 8.51794 28.946336 7.697455 25.829994 7.697455 
L 25.83 25.452 
z
" style="fill: #d55e00; stroke: #301934; stroke-width: 2.3; stroke-linejoin: miter"/>
   </g>
  </g>
 </g>
</svg>
