<?xml version="1.0" encoding="utf-8" standalone="no"?>
<!DOCTYPE svg PUBLIC "-//W3C//DTD SVG 1.1//EN"
  "http://www.w3.org/Graphics/SVG/1.1/DTD/svg11.dtd">
<svg xmlns:xlink="http://www.w3.org/1999/xlink" width="50.4pt" height="50.4pt" viewBox="0 0 50.4 50.4" xmlns="http://www.w3.org/2000/svg" version="1.1">
 <metadata>
  <rdf:RDF xmlns:dc="http://purl.org/dc/elements/1.1/" xmlns:cc="http://creativecommons.org/ns#" xmlns:rdf="http://www.w3.org/1999/02/22-rdf-syntax-ns#">
   <cc:Work>
    <dc:type rdf:resource="http://purl.org/dc/dcmitype/StillImage"/>
    <dc:date>2025-07-22T10:34:01.538897</dc:date>
    <dc:format>image/svg+xml</dc:format>
    <dc:creator>
     <cc:Agent>
      <dc:title>Matplotlib v3.10.3, https://matplotlib.org/</dc:title>
     </cc:Agent>
    </dc:creator>
   </cc:Work>
  </rdf:RDF>
 </metadata>
 <defs>
  <style type="text/css">*{stroke-linejoin: round; stroke-linecap: butt}</style>
 </defs>
 <g id="figure_1">
  <g id="patch_1">
   <path d="M 0 50.4 
L 50.4 50.4 
L 50.4 0 
L 0 0 
L 0 50.4 
z
" style="fill: none"/>
  </g>
  <g id="axes_1">
   <g id="patch_2">
    <path d="M 25.83 7.697319 
C 22.081163 7.697319 18.426934 8.88465 15.394061 11.088162 
C 12.361187 13.291673 10.10275 16.400145 8.944296 19.965502 
L 25.83 25.452 
z
" style="fill: #4c4c4c; stroke: #301934; stroke-width: 2.3; stroke-linejoin: miter"/>
   </g>
   <g id="patch_3">
    <path d="M 8.944296 19.965501 
C 7.785841 23.530857 7.785841 27.373142 8.944295 30.938498 
C 10.10275 34.503854 12.361184 37.612323 15.394057 39.815835 
L 25.83 25.452 
z
" style="fill: #56b4e9; stroke: #301934; stroke-width: 2.3; stroke-linejoin: miter"/>
   </g>
   <g id="patch_4">
    <path d="M 15.394057 39.815835 
C 18.42693 42.019348 22.081162 43.206681 25.830001 43.206681 
C 29.578839 43.206681 33.233062 42.019351 36.265936 39.815841 
L 25.83 25.452 
z
" style="fill: #d55e00; stroke: #301934; stroke-width: 2.3; stroke-linejoin: miter"/>
   </g>
   <g id="patch_5">
    <path d="M 36.265936 39.815841 
C 39.298809 37.612331 41.557247 34.503859 42.715702 30.938505 
C 43.874158 27.373151 43.87416 23.530869 42.715709 19.965513 
L 25.83 25.452 
z
" style="fill: #a7a7a7; stroke: #301934; stroke-width: 2.3; stroke-linejoin: miter"/>
   </g>
   <g id="patch_6">
    <path d="M 42.715709 19.965513 
C 41.557255 16.400155 39.298819 13.29168 36.265945 11.088166 
C 33.233071 8.884652 29.578842 7.697319 25.830003 7.697319 
L 25.83 25.452 
z
" style="fill: #009e73; stroke: #301934; stroke-width: 2.3; stroke-linejoin: miter"/>
   </g>
  </g>
 </g>
</svg>
