<?xml version="1.0" encoding="utf-8" standalone="no"?>
<!DOCTYPE svg PUBLIC "-//W3C//DTD SVG 1.1//EN"
  "http://www.w3.org/Graphics/SVG/1.1/DTD/svg11.dtd">
<svg xmlns:xlink="http://www.w3.org/1999/xlink" width="50.4pt" height="50.4pt" viewBox="0 0 50.4 50.4" xmlns="http://www.w3.org/2000/svg" version="1.1">
 <metadata>
  <rdf:RDF xmlns:dc="http://purl.org/dc/elements/1.1/" xmlns:cc="http://creativecommons.org/ns#" xmlns:rdf="http://www.w3.org/1999/02/22-rdf-syntax-ns#">
   <cc:Work>
    <dc:type rdf:resource="http://purl.org/dc/dcmitype/StillImage"/>
    <dc:date>2025-07-22T10:34:01.512394</dc:date>
    <dc:format>image/svg+xml</dc:format>
    <dc:creator>
     <cc:Agent>
      <dc:title>Matplotlib v3.10.3, https://matplotlib.org/</dc:title>
     </cc:Agent>
    </dc:creator>
   </cc:Work>
  </rdf:RDF>
 </metadata>
 <defs>
  <style type="text/css">*{stroke-linejoin: round; stroke-linecap: butt}</style>
 </defs>
 <g id="figure_1">
  <g id="patch_1">
   <path d="M 0 50.4 
L 50.4 50.4 
L 50.4 0 
L 0 0 
L 0 50.4 
z
" style="fill: none"/>
  </g>
  <g id="axes_1">
   <g id="patch_2">
    <path d="M 25.83 7.697455 
C 21.123008 7.697455 16.603987 9.569294 13.275641 12.897641 
C 9.947294 16.225987 8.075455 20.745008 8.075455 25.452 
L 25.83 25.452 
z
" style="fill: #4c4c4c; stroke: #301934; stroke-width: 2.3; stroke-linejoin: miter"/>
   </g>
   <g id="patch_3">
    <path d="M 8.075455 25.452002 
C 8.075455 30.158994 9.947296 34.678016 13.275643 38.006361 
C 16.603989 41.334707 21.123008 43.206545 25.83 43.206545 
L 25.83 25.452 
z
" style="fill: #56b4e9; stroke: #301934; stroke-width: 2.3; stroke-linejoin: miter"/>
   </g>
   <g id="patch_4">
    <path d="M 25.83 43.206545 
C 28.161506 43.206545 30.470343 42.747289 32.624373 41.85506 
C 34.778403 40.96283 36.73574 39.654979 38.384364 38.006355 
C 40.032987 36.357731 41.340833 34.400401 42.233062 32.24637 
C 43.12529 30.092339 43.584545 27.783503 43.584545 25.451997 
L 25.83 25.452 
z
" style="fill: #a7a7a7; stroke: #301934; stroke-width: 2.3; stroke-linejoin: miter"/>
   </g>
   <g id="patch_5">
    <path d="M 43.584545 25.451997 
C 43.584544 20.745006 41.712705 16.225986 38.384359 12.897641 
C 35.056014 9.569295 30.536994 7.697456 25.830002 7.697455 
L 25.83 25.452 
z
" style="fill: #009e73; stroke: #301934; stroke-width: 2.3; stroke-linejoin: miter"/>
   </g>
  </g>
 </g>
</svg>
